<?xml version="1.0" encoding="UTF-8" standalone="no"?>
<svg
   xmlns:dc="http://purl.org/dc/elements/1.1/"
   xmlns:cc="http://creativecommons.org/ns#"
   xmlns:rdf="http://www.w3.org/1999/02/22-rdf-syntax-ns#"
   xmlns:svg="http://www.w3.org/2000/svg"
   xmlns="http://www.w3.org/2000/svg"
   xmlns:sodipodi="http://sodipodi.sourceforge.net/DTD/sodipodi-0.dtd"
   xmlns:inkscape="http://www.inkscape.org/namespaces/inkscape"
   height="50px"
   version="1.1"
   viewBox="0 0 50 50"
   width="50px"
   id="svg2"
   inkscape:version="0.91 r13725"
   sodipodi:docname="ig.svg">
  <metadata
     id="metadata13">
    <rdf:RDF>
      <cc:Work
         rdf:about="">
        <dc:format>image/svg+xml</dc:format>
        <dc:type
           rdf:resource="http://purl.org/dc/dcmitype/StillImage" />
      </cc:Work>
    </rdf:RDF>
  </metadata>
  <sodipodi:namedview
     pagecolor="#ffffff"
     bordercolor="#666666"
     borderopacity="1"
     objecttolerance="10"
     gridtolerance="10"
     guidetolerance="10"
     inkscape:pageopacity="0"
     inkscape:pageshadow="2"
     inkscape:window-width="1000"
     inkscape:window-height="576"
     id="namedview11"
     showgrid="false"
     inkscape:zoom="6.600625"
     inkscape:cx="25"
     inkscape:cy="25"
     inkscape:window-x="0"
     inkscape:window-y="0"
     inkscape:window-maximized="0"
     inkscape:current-layer="Intsagram" />
  <title
     id="title4" />
  <defs
     id="defs6" />
  <g
     fill="none"
     fill-rule="evenodd"
     id="Page-1"
     stroke="none"
     stroke-width="1"
     style="fill:#f2f2f2">
    <g
       fill="#000000"
       id="Intsagram"
       style="fill:#f2f2f2">
      <path
         d="M 35.951313,34.509666 C 35.970159,34.407538 35.98398,34.303769 36,34.201313 l 0,-18.402626 c -0.01539,-0.100814 -0.02858,-0.201957 -0.04743,-0.302442 -0.19255,-1.030797 -1.005782,-1.83074 -2.00434,-1.973587 -0.04146,-0.0056 -0.08198,-0.01511 -0.122817,-0.02266 l -17.650824,0 c -0.106483,0.02003 -0.213595,0.03514 -0.318508,0.06009 -0.974685,0.232168 -1.695883,1.052799 -1.83472,2.085237 -0.0057,0.04302 -0.01413,0.08571 -0.02136,0.128727 l 0,18.45287 c 0.0201,0.116904 0.03612,0.234794 0.06125,0.351042 0.21548,0.996316 1.029026,1.768675 1.996801,1.898715 0.0468,0.0059 0.09392,0.01543 0.140722,0.02331 l 17.60245,0 c 0.114336,-0.02036 0.228987,-0.03711 0.342067,-0.06272 0.898356,-0.199329 1.632433,-0.982853 1.808021,-1.927613 z M 16.380331,33.098929 c 0,0.48962 0.405517,0.910608 0.873856,0.910608 5.162724,3.29e-4 10.325133,3.29e-4 15.487857,0 0.472736,0 0.876055,-0.420331 0.876055,-0.913563 3.14e-4,-3.399758 0,-6.799187 0,-10.198615 l 0,-0.0706 -2.100145,0 c 0.296521,0.990734 0.387613,1.998544 0.271392,3.025728 -0.116849,1.027513 -0.433473,1.983767 -0.949243,2.866791 -0.516084,0.884009 -1.185139,1.616305 -2.00434,2.199186 -2.123389,1.511879 -4.918974,1.644874 -7.17209,0.322801 -1.138965,-0.667604 -2.033239,-1.598572 -2.656748,-2.798158 -0.930082,-1.79002 -1.078656,-3.668704 -0.533046,-5.61799 -0.696698,6.57e-4 -1.390568,6.57e-4 -2.093862,6.57e-4 l 0,0.06207 c 0,3.403697 -3.14e-4,6.807395 3.14e-4,10.211093 z m 8.517426,-3.440805 c 2.490898,0.05582 4.505604,-2.024815 4.55806,-4.55534 0.05371,-2.609666 -1.959736,-4.765177 -4.45566,-4.763535 -2.440012,-0.0016 -4.423621,2.050757 -4.457859,4.590148 -0.03518,2.607696 1.961621,4.674872 4.355459,4.728727 z m 8.720027,-11.176542 c 3.15e-4,-0.726057 3.15e-4,-1.452442 0,-2.178498 0,-0.520817 -0.394209,-0.935237 -0.89176,-0.935565 -0.692614,-3.29e-4 -1.385228,-6.57e-4 -2.078156,0 -0.496295,6.56e-4 -0.891761,0.416062 -0.892075,0.936878 -3.14e-4,0.719818 -0.0022,1.439635 0.0025,2.159781 6.28e-4,0.107381 0.0201,0.219032 0.05277,0.320831 0.124387,0.383223 0.460172,0.618346 0.871343,0.620316 0.334214,6.57e-4 0.668427,-3.28e-4 1.002955,-3.28e-4 0.361856,-0.0043 0.724968,0.003 1.087137,-0.0062 0.465827,-0.01215 0.845272,-0.429526 0.845272,-0.917176 z"
         id="Oval-1"
         style="fill:#f2f2f2"
         inkscape:connector-curvature="0"
         sodipodi:nodetypes="cccccccccccccccccccccscccccccccsccccscccccccccccc" />
    </g>
  </g>
</svg>
